<?xml version="1.0" encoding="UTF-8"?>
<svg id="Camada_1" xmlns="http://www.w3.org/2000/svg" version="1.1" viewBox="0 0 446 95">
  <!-- Generator: Adobe Illustrator 29.5.0, SVG Export Plug-In . SVG Version: 2.1.0 Build 137)  -->
  <defs>
    <style>
      .st0 {
        fill: #fff;
      }

      .st1 {
        fill: #1e3799;
      }
    </style>
  </defs>
  <path class="st1" d="M154.15,85.87h-11.79l-2.1-4.21c-1.71,1.56-3.35,2.65-4.9,3.27-1.48.62-3.74.94-6.77.94h-10.16c-3.42-3.27-6.15-7.56-8.17-12.86-1.94-5.3-2.92-11.22-2.92-17.77s.97-12.24,2.92-16.84c2.02-4.6,4.86-8.69,8.52-12.28h10.04c4.12,0,7.39,1.09,9.81,3.27V4.02h15.52v81.85ZM138.62,38.39h-11.21c-2.88,4.91-4.32,10.95-4.32,18.12s1.4,12.78,4.2,17.07h11.32v-35.19Z"/>
  <path class="st1" d="M191.11,38.39h-8.75c-1.17,1.4-2.14,3.35-2.92,5.85-.7,2.49-1.05,4.91-1.05,7.25h16.69c.16-2.34-.15-4.75-.93-7.25-.78-2.57-1.79-4.52-3.04-5.85ZM206.98,73.59v12.28h-29.65c-5.45-3.66-9.3-8.18-11.56-13.56-2.18-5.46-3.27-10.95-3.27-16.49,0-12.78,4.82-22.68,14.47-29.7h18.91c5.21,3.82,8.75,7.87,10.62,12.16,1.87,4.29,2.8,8.61,2.8,12.98s-.35,8.11-1.05,11.22h-29.06c.23,1.79.9,3.86,1.98,6.2,1.17,2.26,2.41,3.9,3.74,4.91h22.06Z"/>
  <path class="st1" d="M232.56,4.02v81.85h-15.41V4.02h15.41Z"/>
  <path class="st1" d="M242.22,68.56h16.81v17.3h-16.81v-17.3Z"/>
  <path class="st0" d="M268.64,59.79v-21.4h-8.05v-12.28h8.05V9.87h15.52v16.25h9.57v12.28h-9.57v25.14c0,4.75.82,8.11,2.45,10.06h7.12v12.28h-16.57c-4.12-3.82-6.61-7.95-7.47-12.39-.7-3.74-1.05-8.3-1.05-13.68Z"/>
  <path class="st0" d="M327.32,38.39h-8.75c-1.17,1.4-2.14,3.35-2.92,5.85-.7,2.49-1.05,4.91-1.05,7.25h16.69c.16-2.34-.16-4.75-.93-7.25-.78-2.57-1.79-4.52-3.04-5.85ZM343.2,73.59v12.28h-29.65c-5.45-3.66-9.3-8.18-11.56-13.56-2.18-5.46-3.27-10.95-3.27-16.49,0-12.78,4.82-22.68,14.47-29.7h18.91c5.21,3.82,8.75,7.87,10.62,12.16,1.87,4.29,2.8,8.61,2.8,12.98s-.35,8.11-1.05,11.22h-29.06c.23,1.79.89,3.86,1.98,6.2,1.17,2.26,2.41,3.9,3.73,4.91h22.06Z"/>
  <path class="st0" d="M367.84,55.47c0,3.27.51,6.63,1.52,10.06,1.01,3.35,2.41,6.04,4.2,8.07h17.51v12.28h-25.56c-9.18-7.33-13.77-17.46-13.77-30.4s4.9-22.72,14.71-29.35h24.63v12.28h-17.51c-3.81,3.98-5.72,9.67-5.72,17.07Z"/>
  <path class="st0" d="M426.04,26.12h11.09c3.42,4.37,5.76,8.73,7,13.1,1.25,4.37,1.87,9.82,1.87,16.37v30.28h-15.52v-31.45c0-7.41-1.01-12.74-3.04-16.02h-13.07v47.47h-15.52V4.02h15.52v26.31c1.71-1.56,3.31-2.65,4.79-3.27,1.56-.62,3.85-.94,6.89-.94Z"/>
  <path class="st1" d="M154.15,85.87h-11.79l-2.1-4.21c-1.71,1.56-3.35,2.65-4.9,3.27-1.48.62-3.74.94-6.77.94h-10.16c-3.42-3.27-6.15-7.56-8.17-12.86-1.94-5.3-2.92-11.22-2.92-17.77s.97-12.24,2.92-16.84c2.02-4.6,4.86-8.69,8.52-12.28h10.04c4.12,0,7.39,1.09,9.81,3.27V4.02h15.52v81.85ZM138.62,38.39h-11.21c-2.88,4.91-4.32,10.95-4.32,18.12s1.4,12.78,4.2,17.07h11.32v-35.19Z"/>
  <path class="st1" d="M191.11,38.39h-8.75c-1.17,1.4-2.14,3.35-2.92,5.85-.7,2.49-1.05,4.91-1.05,7.25h16.69c.16-2.34-.15-4.75-.93-7.25-.78-2.57-1.79-4.52-3.04-5.85ZM206.98,73.59v12.28h-29.65c-5.45-3.66-9.3-8.18-11.56-13.56-2.18-5.46-3.27-10.95-3.27-16.49,0-12.78,4.82-22.68,14.47-29.7h18.91c5.21,3.82,8.75,7.87,10.62,12.16,1.87,4.29,2.8,8.61,2.8,12.98s-.35,8.11-1.05,11.22h-29.06c.23,1.79.9,3.86,1.98,6.2,1.17,2.26,2.41,3.9,3.74,4.91h22.06Z"/>
  <path class="st1" d="M232.56,4.02v81.85h-15.41V4.02h15.41Z"/>
  <path class="st1" d="M242.22,68.56h16.81v17.3h-16.81v-17.3Z"/>
  <path class="st0" d="M268.64,59.79v-21.4h-8.05v-12.28h8.05V9.87h15.52v16.25h9.57v12.28h-9.57v25.14c0,4.75.82,8.11,2.45,10.06h7.12v12.28h-16.57c-4.12-3.82-6.61-7.95-7.47-12.39-.7-3.74-1.05-8.3-1.05-13.68Z"/>
  <path class="st0" d="M327.32,38.39h-8.75c-1.17,1.4-2.14,3.35-2.92,5.85-.7,2.49-1.05,4.91-1.05,7.25h16.69c.16-2.34-.16-4.75-.93-7.25-.78-2.57-1.79-4.52-3.04-5.85ZM343.2,73.59v12.28h-29.65c-5.45-3.66-9.3-8.18-11.56-13.56-2.18-5.46-3.27-10.95-3.27-16.49,0-12.78,4.82-22.68,14.47-29.7h18.91c5.21,3.82,8.75,7.87,10.62,12.16,1.87,4.29,2.8,8.61,2.8,12.98s-.35,8.11-1.05,11.22h-29.06c.23,1.79.89,3.86,1.98,6.2,1.17,2.26,2.41,3.9,3.73,4.91h22.06Z"/>
  <path class="st0" d="M367.84,55.47c0,3.27.51,6.63,1.52,10.06,1.01,3.35,2.41,6.04,4.2,8.07h17.51v12.28h-25.56c-9.18-7.33-13.77-17.46-13.77-30.4s4.9-22.72,14.71-29.35h24.63v12.28h-17.51c-3.81,3.98-5.72,9.67-5.72,17.07Z"/>
  <path class="st0" d="M426.04,26.12h11.09c3.42,4.37,5.76,8.73,7,13.1,1.25,4.37,1.87,9.82,1.87,16.37v30.28h-15.52v-31.45c0-7.41-1.01-12.74-3.04-16.02h-13.07v47.47h-15.52V4.02h15.52v26.31c1.71-1.56,3.31-2.65,4.79-3.27,1.56-.62,3.85-.94,6.89-.94Z"/>
  <path class="st1" d="M91.69,41.76l-3.19.2c-.98-7.33-3.85-14.03-8.12-19.64l2.4-2.12c1.28-1.13,1.34-3.12.14-4.33l-3.92-3.93c-1.21-1.21-3.19-1.15-4.32.14l-2.12,2.4c-5.59-4.28-12.29-7.16-19.6-8.14l.2-3.19C53.26,1.45,51.9,0,50.19,0h-5.55C42.94,0,41.58,1.45,41.69,3.15l.2,3.2c-7.31.98-14.01,3.86-19.6,8.14l-2.12-2.4c-1.13-1.28-3.11-1.35-4.32-.14l-3.92,3.93c-1.21,1.21-1.15,3.19.14,4.33l2.4,2.12c-4.27,5.6-7.15,12.31-8.12,19.64l-3.19-.2c-1.71-.11-3.15,1.25-3.15,2.96v5.56c0,1.71,1.44,3.07,3.15,2.96l3.19-.2c.98,7.33,3.85,14.03,8.12,19.64l-2.4,2.12c-1.28,1.13-1.34,3.12-.14,4.33l3.92,3.93c1.21,1.21,3.19,1.15,4.32-.14l2.12-2.4c5.59,4.28,12.29,7.16,19.6,8.14l-.2,3.2c-.11,1.71,1.25,3.15,2.96,3.15h5.55c1.71,0,3.06-1.45,2.96-3.15l-.2-3.2c7.31-.98,14.01-3.86,19.6-8.14l2.12,2.4c1.13,1.28,3.11,1.35,4.32.14l3.92-3.93c1.21-1.21,1.15-3.19-.14-4.33l-2.4-2.12c4.27-5.6,7.15-12.31,8.12-19.64l3.19.2c1.71.11,3.15-1.25,3.15-2.96v-5.56c0-1.71-1.44-3.07-3.15-2.96ZM52.2,18.3c4.6.76,8.82,2.53,12.45,5.15l-7.89,8.96c-1.62-1.01-3.39-1.77-5.3-2.22l.74-11.9ZM42.63,18.3l.74,11.9c-1.91.45-3.68,1.21-5.3,2.22l-7.89-8.96c3.63-2.62,7.86-4.4,12.45-5.15ZM23.41,30.23l8.95,7.91c-1.01,1.62-1.77,3.4-2.22,5.31l-11.88-.74c.75-4.6,2.53-8.84,5.15-12.47ZM18.27,52.29l11.88-.74c.45,1.91,1.21,3.69,2.21,5.31l-8.94,7.91c-2.62-3.64-4.39-7.87-5.15-12.47ZM42.63,76.7c-4.6-.76-8.82-2.53-12.45-5.15l7.89-8.96c1.62,1.01,3.4,1.77,5.3,2.22l-.74,11.9ZM47.42,53.44c-3.27,0-5.93-2.66-5.93-5.94s2.65-5.94,5.93-5.94,5.93,2.66,5.93,5.94-2.65,5.94-5.93,5.94ZM52.2,76.7l-.74-11.9c1.91-.45,3.68-1.21,5.3-2.22l7.89,8.96c-3.63,2.62-7.86,4.4-12.45,5.15ZM71.42,64.77l-8.94-7.91c1.01-1.62,1.77-3.4,2.21-5.31l11.88.74c-.75,4.61-2.53,8.84-5.15,12.47ZM64.69,43.45c-.45-1.91-1.21-3.69-2.22-5.31l8.95-7.91c2.62,3.64,4.39,7.87,5.15,12.47l-11.88.74Z"/>
</svg>