<svg width="446" height="95" viewBox="0 0 446 95" fill="none" xmlns="http://www.w3.org/2000/svg">
<path d="M154.147 85.8654H142.358L140.257 81.6562C138.545 83.2151 136.911 84.3064 135.355 84.93C133.876 85.5536 131.619 85.8654 128.585 85.8654H118.43C115.006 82.5915 112.282 78.3044 110.259 73.0038C108.314 67.7033 107.341 61.7792 107.341 55.2315C107.341 48.6059 108.314 42.9936 110.259 38.3946C112.282 33.7956 115.123 29.7033 118.78 26.1177H128.818C132.942 26.1177 136.21 27.209 138.623 29.3915V4.01923H154.147V85.8654ZM138.623 38.3946H127.417C124.538 43.3054 123.099 49.3464 123.099 56.5177C123.099 63.611 124.499 69.3013 127.301 73.5885H138.623V38.3946Z" fill="#1E3799"/>
<path d="M191.108 38.3946H182.354C181.186 39.7977 180.214 41.7464 179.436 44.2408C178.735 46.7351 178.385 49.1515 178.385 51.49H195.076C195.232 49.1515 194.921 46.7351 194.143 44.2408C193.364 41.6685 192.353 39.7197 191.108 38.3946ZM206.982 73.5885V85.8654H177.335C171.887 82.2018 168.036 77.6808 165.779 72.3023C163.6 66.8459 162.511 61.3505 162.511 55.8162C162.511 43.0326 167.335 33.1331 176.984 26.1177H195.893C201.107 29.9372 204.648 33.9905 206.515 38.2777C208.383 42.5649 209.317 46.891 209.317 51.2562C209.317 55.6213 208.966 59.3628 208.266 62.4808H179.202C179.436 64.2736 180.097 66.3392 181.186 68.6777C182.354 70.9382 183.599 72.5751 184.922 73.5885H206.982Z" fill="#1E3799"/>
<path d="M232.556 4.01923V85.8654H217.149V4.01923H232.556Z" fill="#1E3799"/>
<path d="M242.218 68.5608H259.026V85.8654H242.218V68.5608Z" fill="#1E3799"/>
<path d="M268.639 59.7915V38.3946H260.585V26.1177H268.639V9.86538H284.163V26.1177H293.734V38.3946H284.163V63.5331C284.163 68.288 284.98 71.6397 286.614 73.5885H293.734V85.8654H277.16C273.036 82.0459 270.546 77.9146 269.69 73.4715C268.989 69.73 268.639 65.17 268.639 59.7915Z" fill="#272727"/>
<path d="M327.322 38.3946H318.568C317.401 39.7977 316.428 41.7464 315.65 44.2408C314.95 46.7351 314.599 49.1515 314.599 51.49H331.291C331.446 49.1515 331.135 46.7351 330.357 44.2408C329.579 41.6685 328.567 39.7197 327.322 38.3946ZM343.197 73.5885V85.8654H313.549C308.102 82.2018 304.25 77.6808 301.993 72.3023C299.815 66.8459 298.725 61.3505 298.725 55.8162C298.725 43.0326 303.55 33.1331 313.199 26.1177H332.108C337.322 29.9372 340.862 33.9905 342.73 38.2777C344.597 42.5649 345.531 46.891 345.531 51.2562C345.531 55.6213 345.181 59.3628 344.48 62.4808H315.417C315.65 64.2736 316.311 66.3392 317.401 68.6777C318.568 70.9382 319.813 72.5751 321.136 73.5885H343.197Z" fill="#272727"/>
<path d="M367.837 55.4654C367.837 58.7392 368.343 62.091 369.354 65.5208C370.366 68.8726 371.767 71.5618 373.556 73.5885H391.065V85.8654H365.502C356.32 78.5382 351.729 68.4049 351.729 55.4654C351.729 42.5259 356.631 32.7433 366.436 26.1177H391.065V38.3946H373.556C369.743 42.37 367.837 48.0603 367.837 55.4654Z" fill="#272727"/>
<path d="M426.04 26.1177H437.129C440.553 30.4828 442.887 34.8479 444.132 39.2131C445.377 43.5782 446 49.0346 446 55.5823V85.8654H430.476V54.4131C430.476 47.0079 429.464 41.6685 427.441 38.3946H414.368V85.8654H398.844V4.01923H414.368V30.3269C416.08 28.7679 417.675 27.6767 419.154 27.0531C420.71 26.4295 423.006 26.1177 426.04 26.1177Z" fill="#272727"/>
<path d="M154.147 85.8654H142.358L140.257 81.6562C138.545 83.2151 136.911 84.3064 135.355 84.93C133.876 85.5536 131.619 85.8654 128.585 85.8654H118.43C115.006 82.5915 112.282 78.3044 110.259 73.0038C108.314 67.7033 107.341 61.7792 107.341 55.2315C107.341 48.6059 108.314 42.9936 110.259 38.3946C112.282 33.7956 115.123 29.7033 118.78 26.1177H128.818C132.942 26.1177 136.21 27.209 138.623 29.3915V4.01923H154.147V85.8654ZM138.623 38.3946H127.417C124.538 43.3054 123.099 49.3464 123.099 56.5177C123.099 63.611 124.499 69.3013 127.301 73.5885H138.623V38.3946Z" fill="#1E3799"/>
<path d="M191.108 38.3946H182.354C181.186 39.7977 180.214 41.7464 179.436 44.2408C178.735 46.7351 178.385 49.1515 178.385 51.49H195.076C195.232 49.1515 194.921 46.7351 194.143 44.2408C193.364 41.6685 192.353 39.7197 191.108 38.3946ZM206.982 73.5885V85.8654H177.335C171.887 82.2018 168.036 77.6808 165.779 72.3023C163.6 66.8459 162.511 61.3505 162.511 55.8162C162.511 43.0326 167.335 33.1331 176.984 26.1177H195.893C201.107 29.9372 204.648 33.9905 206.515 38.2777C208.383 42.5649 209.317 46.891 209.317 51.2562C209.317 55.6213 208.966 59.3628 208.266 62.4808H179.202C179.436 64.2736 180.097 66.3392 181.186 68.6777C182.354 70.9382 183.599 72.5751 184.922 73.5885H206.982Z" fill="#1E3799"/>
<path d="M232.556 4.01923V85.8654H217.149V4.01923H232.556Z" fill="#1E3799"/>
<path d="M242.218 68.5608H259.026V85.8654H242.218V68.5608Z" fill="#1E3799"/>
<path d="M268.639 59.7915V38.3946H260.585V26.1177H268.639V9.86538H284.163V26.1177H293.734V38.3946H284.163V63.5331C284.163 68.288 284.98 71.6397 286.614 73.5885H293.734V85.8654H277.16C273.036 82.0459 270.546 77.9146 269.69 73.4715C268.989 69.73 268.639 65.17 268.639 59.7915Z" fill="#272727"/>
<path d="M327.322 38.3946H318.568C317.401 39.7977 316.428 41.7464 315.65 44.2408C314.95 46.7351 314.599 49.1515 314.599 51.49H331.291C331.446 49.1515 331.135 46.7351 330.357 44.2408C329.579 41.6685 328.567 39.7197 327.322 38.3946ZM343.197 73.5885V85.8654H313.549C308.102 82.2018 304.25 77.6808 301.993 72.3023C299.815 66.8459 298.725 61.3505 298.725 55.8162C298.725 43.0326 303.55 33.1331 313.199 26.1177H332.108C337.322 29.9372 340.862 33.9905 342.73 38.2777C344.597 42.5649 345.531 46.891 345.531 51.2562C345.531 55.6213 345.181 59.3628 344.48 62.4808H315.417C315.65 64.2736 316.311 66.3392 317.401 68.6777C318.568 70.9382 319.813 72.5751 321.136 73.5885H343.197Z" fill="#272727"/>
<path d="M367.837 55.4654C367.837 58.7392 368.343 62.091 369.354 65.5208C370.366 68.8726 371.767 71.5618 373.556 73.5885H391.065V85.8654H365.502C356.32 78.5382 351.729 68.4049 351.729 55.4654C351.729 42.5259 356.631 32.7433 366.436 26.1177H391.065V38.3946H373.556C369.743 42.37 367.837 48.0603 367.837 55.4654Z" fill="#272727"/>
<path d="M426.04 26.1177H437.129C440.553 30.4828 442.887 34.8479 444.132 39.2131C445.377 43.5782 446 49.0346 446 55.5823V85.8654H430.476V54.4131C430.476 47.0079 429.464 41.6685 427.441 38.3946H414.368V85.8654H398.844V4.01923H414.368V30.3269C416.08 28.7679 417.675 27.6767 419.154 27.0531C420.71 26.4295 423.006 26.1177 426.04 26.1177Z" fill="#272727"/>
<path d="M91.6865 41.7592L88.4969 41.9596C87.5208 34.6323 84.6461 27.9248 80.3729 22.3213L82.7716 20.2005C84.0534 19.0668 84.1145 17.0852 82.9068 15.8754L78.9874 11.9492C77.7779 10.7376 75.7997 10.8007 74.6698 12.0847L72.5527 14.4856C66.9589 10.2069 60.263 7.32725 52.9503 6.34756L53.1485 3.1543C53.256 1.44541 51.9001 0 50.1905 0H44.6448C42.9352 0 41.5812 1.44541 41.6868 3.1543L41.8868 6.34941C34.5723 7.32725 27.8764 10.2069 22.2844 14.4875L20.1673 12.0847C19.0356 10.8007 17.0574 10.7395 15.8497 11.9492L11.9285 15.8754C10.719 17.087 10.782 19.0687 12.0637 20.2005L14.4624 22.3213C10.1911 27.9248 7.3164 34.6323 6.33841 41.9596L3.14883 41.7592C1.4429 41.6516 0 43.0098 0 44.7224V50.2776C0 51.9902 1.4429 53.3466 3.14883 53.2408L6.33841 53.0404C7.31454 60.3677 10.1892 67.0752 14.4624 72.6769L12.0637 74.7977C10.782 75.9314 10.7208 77.913 11.9285 79.1228L15.8497 83.0508C17.0592 84.2624 19.0374 84.1993 20.1673 82.9153L22.2844 80.5125C27.8782 84.7912 34.5741 87.6709 41.8887 88.6506L41.6868 91.8457C41.5794 93.5546 42.9352 95 44.6448 95H50.1905C51.9001 95 53.2541 93.5546 53.1485 91.8457L52.9485 88.6506C60.263 87.6728 66.9589 84.7931 72.5527 80.5125L74.6698 82.9153C75.8016 84.1993 77.7798 84.2606 78.9874 83.0508L82.9087 79.1228C84.1182 77.9111 84.0552 75.9295 82.7734 74.7977L80.3748 72.6769C84.6461 67.0733 87.5208 60.3658 88.4988 53.0404L91.6883 53.2408C93.3943 53.3484 94.8372 51.9902 94.8372 50.2776V44.7224C94.8353 43.0098 93.3924 41.6534 91.6865 41.7592ZM52.2039 18.2968C56.7993 19.052 61.0262 20.8313 64.6566 23.4513L56.7623 32.4113C55.1453 31.402 53.3689 30.6412 51.4611 30.194L52.2039 18.2968ZM42.6314 18.2968L43.3742 30.194C41.4682 30.6412 39.6901 31.4038 38.073 32.4113L30.1787 23.4513C33.8092 20.8313 38.036 19.052 42.6314 18.2968ZM23.4106 30.233L32.357 38.1392C31.3494 39.759 30.5899 41.5402 30.1417 43.4495L18.2651 42.7055C19.0189 38.1021 20.7952 33.8697 23.4106 30.233ZM18.2651 52.2945L30.1417 51.5505C30.5881 53.4598 31.3494 55.241 32.3551 56.8608L23.4106 64.7689C20.7952 61.1321 19.0189 56.8979 18.2651 52.2945ZM42.6314 76.7032C38.036 75.9481 33.8092 74.1686 30.1787 71.5487L38.0712 62.5868C39.6882 63.5962 41.4664 64.3569 43.3723 64.806L42.6314 76.7032ZM47.4177 53.4375C44.1447 53.4375 41.4904 50.7786 41.4904 47.5C41.4904 44.2214 44.1447 41.5625 47.4177 41.5625C50.6906 41.5625 53.3449 44.2214 53.3449 47.5C53.3449 50.7786 50.6906 53.4375 47.4177 53.4375ZM52.2039 76.7032L51.4611 64.806C53.3671 64.3588 55.1453 63.5962 56.7623 62.5868L64.6547 71.5487C61.0243 74.1686 56.7993 75.9481 52.2039 76.7032ZM71.4247 64.767L62.4802 56.859C63.4878 55.2392 64.2472 53.4598 64.6936 51.5486L76.5703 52.2927C75.8164 56.8979 74.0401 61.1321 71.4247 64.767ZM64.6936 43.4495C64.2472 41.5402 63.4859 39.759 62.4783 38.1392L71.4247 30.233C74.0401 33.8697 75.8164 38.1039 76.5703 42.7073L64.6936 43.4495Z" fill="#1E3799"/>
</svg>
